<svg viewBox="0 0 64 64" xmlns="http://www.w3.org/2000/svg">
  <!-- Body -->
  <ellipse cx="32" cy="36" rx="14" ry="16" fill="#3d7a2d"/>
  <!-- Head -->
  <circle cx="32" cy="20" r="10" fill="#4a9a3a"/>
  <!-- Left ear -->
  <ellipse cx="24" cy="12" rx="4" ry="6" fill="#4a9a3a"/>
  <!-- Right ear -->
  <ellipse cx="40" cy="12" rx="4" ry="6" fill="#4a9a3a"/>
  <!-- Eyes -->
  <circle cx="28" cy="18" r="2" fill="#000"/>
  <circle cx="36" cy="18" r="2" fill="#000"/>
  <!-- Mouth grin -->
  <path d="M 28 22 Q 32 24 36 22" stroke="#000" stroke-width="1.5" fill="none" stroke-linecap="round"/>
  <!-- Nose (small horn-like) -->
  <polygon points="32,16 30,14 34,14" fill="#2a5a1a"/>
  <!-- Arms -->
  <rect x="18" y="28" width="6" height="12" rx="3" fill="#3d7a2d"/>
  <rect x="40" y="28" width="6" height="12" rx="3" fill="#3d7a2d"/>
  <!-- Legs -->
  <rect x="26" y="48" width="5" height="12" rx="2" fill="#3d7a2d"/>
  <rect x="33" y="48" width="5" height="12" rx="2" fill="#3d7a2d"/>
  <!-- Club (weapon) -->
  <rect x="8" y="32" width="3" height="14" fill="#6b4423" rx="1"/>
  <rect x="7" y="30" width="5" height="4" fill="#8b5a35" rx="1"/>
</svg>
