<?xml version="1.0" encoding="UTF-8"?>
<svg xmlns="http://www.w3.org/2000/svg" width="128" height="96" viewBox="0 0 128 96">
  <defs>
    <style> .s0{fill:#ddd;} .s1{fill:#b89b71;} .s2{fill:#8b6b3f;} .s3{fill:#c73b3b;} .s4{fill:#fff;} </style>
  </defs>
  <!-- small castle base -->
  <rect x="16" y="40" width="96" height="40" rx="6" class="s1" />
  <rect x="24" y="30" width="16" height="10" class="s2" />
  <rect x="44" y="30" width="16" height="10" class="s2" />
  <rect x="64" y="30" width="16" height="10" class="s2" />
  <rect x="84" y="30" width="16" height="10" class="s2" />
  <!-- entrance -->
  <rect x="56" y="54" width="16" height="26" class="s0" />
  <!-- battlements -->
  <rect x="12" y="34" width="8" height="8" class="s2" />
  <rect x="26" y="34" width="8" height="8" class="s2" />
  <rect x="40" y="34" width="8" height="8" class="s2" />
  <rect x="54" y="34" width="8" height="8" class="s2" />
  <rect x="68" y="34" width="8" height="8" class="s2" />
  <rect x="82" y="34" width="8" height="8" class="s2" />
  <rect x="96" y="34" width="8" height="8" class="s2" />
  <!-- flag pole + flag -->
  <rect x="98" y="10" width="4" height="36" class="s2" />
  <path d="M102 14 L120 22 L102 30 Z" class="s3"/>
  <circle cx="104" cy="12" r="3" class="s4" />
</svg>
